<?xml version="1.0" encoding="UTF-8"?><svg width="500" height="620" viewBox="0 0 500 620" fill="none" xmlns="http://www.w3.org/2000/svg"><rect width="500" height="620" fill="#FAFAFA"/><g transform="translate(36,20)"><path d="M214 216.383L301.654 156.047V216.383H323.191H339.348H357.75V194V171.5V134V102.21V86V78V73.5V69.5H333.5L263.737 116.5L214 151L91.5 69.5L66.75 69.6004V133.792V172.702V191.466V210.23V251.215V271.954V292.758L214.003 386L357.75 293V224H286.127H248.562H232.896H215.005H214.504V254V288L241.55 278H301.654L214.003 326L122.346 268.5V156.047L214 216.383Z" fill="#2D2D2D" stroke="#FAFAFA" stroke-width="2"/><path d="M426 249.5L366 288C366 288 366.5 61.4789 366.5 60H332.5L214 140.5L92 59.9997H58.7385V287L1 250.45V130.944V1H106.5L214 69.5L319.5 1H426V249.5Z" fill="#2D2D2D" stroke="#FAFAFA" stroke-width="2"/><path d="M425.501 327.972L213.75 470.5L1 327.5V262.5L214 400L426 262.5L425.501 327.972Z" fill="#2D2D2D" stroke="#FAFAFA" stroke-width="2"/></g><text x="250" y="530" text-anchor="middle" fill="#2D2D2D" font-family="Raleway,serif" font-weight="600" font-size="24.200000000000003" letter-spacing="0.4em">MGV IMÓVEIS</text><text x="250" y="565" text-anchor="middle" fill="#2D2D2D" font-family="Raleway,serif" font-weight="400" font-size="13.200000000000001" letter-spacing="0.4em" opacity="0.85">VALOR QUE PERMANECE</text></svg>